<?xml version="1.0" standalone="no"?>
<!DOCTYPE svg PUBLIC "-//W3C//DTD SVG 20010904//EN"
 "http://www.w3.org/TR/2001/REC-SVG-20010904/DTD/svg10.dtd">
<svg version="1.0" xmlns="http://www.w3.org/2000/svg"
 width="730.000000pt" height="73.000000pt" viewBox="0 0 730.000000 73.000000"
 preserveAspectRatio="xMidYMid meet">
<metadata>
Created by potrace 1.13, written by Peter Selinger 2001-2015
</metadata>
<g transform="translate(0.000000,73.000000) scale(0.100000,-0.100000)"
fill="#2196f3" stroke="none">
<path d="M91 548 l91 -184 -92 -183 -91 -183 38 6 c21 3 170 22 330 41 l292
36 145 -40 145 -41 2701 0 2701 0 145 41 145 40 292 -36 c160 -19 309 -38 330
-41 l38 -6 -91 183 -92 183 91 184 91 184 -37 -6 c-21 -3 -170 -22 -330 -41
l-293 -36 -144 40 -145 41 -2701 0 -2701 0 -145 -41 -144 -40 -293 36 c-160
19 -309 38 -330 41 l-37 6 91 -184z"/>
</g>
</svg>
